<svg width="32" height="32" viewBox="0 0 32 32" xmlns="http://www.w3.org/2000/svg">
  <defs>
    <linearGradient id="bgGradient" x1="0%" y1="0%" x2="100%" y2="100%">
      <stop offset="0%" style="stop-color:#3b82f6;stop-opacity:1" />
      <stop offset="100%" style="stop-color:#1d4ed8;stop-opacity:1" />
    </linearGradient>
    <linearGradient id="heartGradient" x1="0%" y1="0%" x2="100%" y2="100%">
      <stop offset="0%" style="stop-color:#ef4444;stop-opacity:1" />
      <stop offset="100%" style="stop-color:#dc2626;stop-opacity:1" />
    </linearGradient>
  </defs>
  
  <rect width="32" height="32" rx="4" fill="url(#bgGradient)"/>
  
  <!-- Red Heart centered -->
  <g transform="translate(16, 16) scale(0.6)">
    <path d="M12 21.35l-1.45-1.32C5.4 15.36 2 12.28 2 8.5 2 5.42 4.42 3 7.5 3c1.74 0 3.41.81 4.5 2.09C13.09 3.81 14.76 3 16.5 3 19.58 3 22 5.42 22 8.5c0 3.78-3.4 6.86-8.55 11.54L12 21.35z" fill="url(#heartGradient)"/>
  </g>
  
  <!-- Lifeline/Heartbeat inside the heart -->
  <g transform="translate(16, 16)">
    <path d="M-8 -2 L-5 -3 L-2 -2 L0 -3 L2 -2 L5 -3 L8 -2" 
          stroke="#ffffff" 
          stroke-width="1" 
          fill="none" 
          stroke-linecap="round" 
          stroke-linejoin="round"/>
    <circle cx="-8" cy="-2" r="0.5" fill="#ffffff"/>
    <circle cx="8" cy="-2" r="0.5" fill="#ffffff"/>
  </g>
  
  <!-- Text - Bradley Health -->
  <text x="16" y="28" 
        text-anchor="middle" 
        fill="white" 
        font-family="Arial, sans-serif" 
        font-size="2.5" 
        font-weight="bold"
        letter-spacing="0.2px">Bradley Health</text>
</svg>