<svg width="32" height="32" viewBox="0 0 32 32" xmlns="http://www.w3.org/2000/svg">
  <rect width="32" height="32" rx="4" fill="#3b82f6"/>
  
  <!-- Red Heart -->
  <g transform="translate(16, 12) scale(0.4)">
    <path d="M12 21.35l-1.45-1.32C5.4 15.36 2 12.28 2 8.5 2 5.42 4.42 3 7.5 3c1.74 0 3.41.81 4.5 2.09C13.09 3.81 14.76 3 16.5 3 19.58 3 22 5.42 22 8.5c0 3.78-3.4 6.86-8.55 11.54L12 21.35z" fill="#ef4444"/>
  </g>
  
  <!-- Lifeline/Heartbeat -->
  <g transform="translate(16, 20)">
    <path d="M-8 0 L-5 -1 L-2 0 L0 -2 L2 0 L5 -1 L8 0" stroke="#ffffff" stroke-width="1" fill="none" stroke-linecap="round" stroke-linejoin="round"/>
    <circle cx="-8" cy="0" r="0.5" fill="#ffffff"/>
    <circle cx="8" cy="0" r="0.5" fill="#ffffff"/>
  </g>
  
  <!-- Text - Bradley Health -->
  <text x="16" y="28" text-anchor="middle" fill="white" font-family="Arial, sans-serif" font-size="2.5" font-weight="bold">Bradley Health</text>
</svg>