<svg width="100" height="100" viewBox="0 0 100 100" xmlns="http://www.w3.org/2000/svg">
  <!-- Blue background -->
  <rect width="100" height="100" fill="#3b82f6"/>
  
  <!-- Red heart -->
  <path d="M50,75 C50,75 25,55 25,40 C25,30 35,20 45,20 C50,20 50,25 50,25 C50,25 50,20 55,20 C65,20 75,30 75,40 C75,55 50,75 50,75 Z" 
        fill="#ef4444" stroke="#dc2626" stroke-width="2"/>
  
  <!-- White ECG lifeline going through the heart -->
  <path d="M10,50 L90,50" 
        fill="none" stroke="#ffffff" stroke-width="4" stroke-linecap="round"/>
  
  <!-- ECG spikes -->
  <line x1="20" y1="50" x2="20" y2="35" stroke="#ffffff" stroke-width="3" stroke-linecap="round"/>
  <line x1="30" y1="50" x2="30" y2="40" stroke="#ffffff" stroke-width="3" stroke-linecap="round"/>
  <line x1="40" y1="50" x2="40" y2="30" stroke="#ffffff" stroke-width="3" stroke-linecap="round"/>
  <line x1="50" y1="50" x2="50" y2="25" stroke="#ffffff" stroke-width="3" stroke-linecap="round"/>
  <line x1="60" y1="50" x2="60" y2="30" stroke="#ffffff" stroke-width="3" stroke-linecap="round"/>
  <line x1="70" y1="50" x2="70" y2="40" stroke="#ffffff" stroke-width="3" stroke-linecap="round"/>
  <line x1="80" y1="50" x2="80" y2="35" stroke="#ffffff" stroke-width="3" stroke-linecap="round"/>
</svg>