<svg width="180" height="180" viewBox="0 0 180 180" xmlns="http://www.w3.org/2000/svg">
  <!-- Background -->
  <rect width="180" height="180" fill="#3b82f6" rx="36"/>
  
  <!-- Red Heart -->
  <g transform="translate(90, 70) scale(0.8)">
    <path d="M12 21.35l-1.45-1.32C5.4 15.36 2 12.28 2 8.5 2 5.42 4.42 3 7.5 3c1.74 0 3.41.81 4.5 2.09C13.09 3.81 14.76 3 16.5 3 19.58 3 22 5.42 22 8.5c0 3.78-3.4 6.86-8.55 11.54L12 21.35z" fill="#ef4444"/>
  </g>
  
  <!-- Lifeline/Heartbeat -->
  <g transform="translate(90, 110)">
    <path d="M-30 0 L-20 -5 L-10 0 L0 -8 L10 0 L20 -3 L30 0" stroke="#ffffff" stroke-width="3" fill="none" stroke-linecap="round" stroke-linejoin="round"/>
    <circle cx="-30" cy="0" r="2" fill="#ffffff"/>
    <circle cx="30" cy="0" r="2" fill="#ffffff"/>
  </g>
  
  <!-- Text - Bradley Health -->
  <text x="90" y="155" text-anchor="middle" fill="#ffffff" font-family="Arial, sans-serif" font-size="14" font-weight="bold">Bradley Health</text>
</svg>