<?xml version="1.0" encoding="UTF-8"?>
<svg width="512" height="512" viewBox="0 0 512 512" fill="none" xmlns="http://www.w3.org/2000/svg">
    <!-- Background Circle -->
    <circle cx="256" cy="256" r="256" fill="#2B6CB0"/>
    
    <!-- Heart Shape -->
    <path d="M256 384c-8.5 0-16.6-3.4-22.6-9.4l-96-96c-12.5-12.5-12.5-32.8 0-45.3s32.8-12.5 45.3 0L256 306.7l85.3-85.3c12.5-12.5 32.8-12.5 45.3 0s12.5 32.8 0 45.3l-96 96c-6 6-14.1 9.4-22.6 9.4z" fill="#FFFFFF"/>
    
    <!-- Pulse Lines -->
    <path d="M192 256h32v64h-32z" fill="#FFFFFF" opacity="0.8"/>
    <path d="M256 224h32v96h-32z" fill="#FFFFFF" opacity="0.8"/>
    <path d="M320 192h32v128h-32z" fill="#FFFFFF" opacity="0.8"/>
    
    <!-- Medical Cross -->
    <path d="M256 160v192M160 256h192" stroke="#FFFFFF" stroke-width="32" stroke-linecap="round"/>
</svg> 